<?xml version="1.0" encoding="iso-8859-1"?>
<!DOCTYPE svg PUBLIC "-//W3C//DTD SVG 1.1//EN" "http://www.w3.org/Graphics/SVG/1.1/DTD/svg11.dtd">
<svg 
 version="1.1" xmlns="http://www.w3.org/2000/svg" xmlns:xlink="http://www.w3.org/1999/xlink" x="0px" y="0px" width="512px"
	 height="512px" viewBox="0 0 512 512" enable-background="new 0 0 512 512" xml:space="preserve"
><g id="5151e0c8492e5103c096af88a528f1d2"><g></g><g fill="#1e4072"><path display="inline" d="M255.56,0.5L11.145,412.41l167.366,99.09l322.344-53.429L255.56,0.5z M172.652,483.288L53.319,412.635
		l-1.896-11.082l-10.103,1.726L235.35,76.285L172.652,483.288z M193.557,487.422l15.382-99.842l12.532-2.142l-2.15-12.592
		l-8.332,1.422l45.395-294.69l2.569,10.026l12.377-3.169l-5.182-20.235l-8.018,2.054l2.141-13.902l207.773,387.575L193.557,487.422z
		 M303.268,358.491l2.154,12.592l-20.988,3.589l-2.154-12.592L303.268,358.491z M261.291,365.669l2.154,12.592l-20.984,3.589
		l-2.154-12.592L261.291,365.669z M415.023,415.313l-18.402-10.713l6.426-11.036l18.406,10.712L415.023,415.313z M378.221,393.896
		l-18.406-10.708l6.43-11.045l18.4,10.708L378.221,393.896z M93.396,394.375l2.154,12.592l-20.988,3.589l-2.154-12.592
		L93.396,394.375z M451.83,436.733l-18.4-10.708l6.42-11.045l18.406,10.708L451.83,436.733z M179.499,392.611l-20.988,3.589
		l-2.154-12.592l20.988-3.589L179.499,392.611z M135.371,387.197l2.154,12.592l-20.988,3.589l-2.154-12.592L135.371,387.197z
		 M305.57,271.74l12.377-3.169l5.182,20.239l-12.377,3.169L305.57,271.74z M295.213,231.265l12.375-3.169l5.178,20.24l-12.377,3.169
		L295.213,231.265z M284.854,190.794l12.375-3.169l5.178,20.235l-12.375,3.169L284.854,190.794z M274.49,150.319l12.375-3.169
		l5.182,20.235l-12.375,3.169L274.49,150.319z M315.934,312.215l12.377-3.169l5.176,20.235l-12.375,3.169L315.934,312.215z
		 M264.131,109.844l12.377-3.168l5.18,20.235l-12.375,3.168L264.131,109.844z M338.668,349.521l1.98,7.73l7.189,4.188l-6.42,11.037
		l-10.031-5.835l-4.982,0.853l-2.152-12.592l2.498-0.429l-0.457-1.784L338.668,349.521z"></path></g></g></svg>