<?xml version="1.0" encoding="iso-8859-1"?>
<!DOCTYPE svg PUBLIC "-//W3C//DTD SVG 1.1//EN" "http://www.w3.org/Graphics/SVG/1.1/DTD/svg11.dtd">
<svg 
 version="1.1" xmlns="http://www.w3.org/2000/svg" xmlns:xlink="http://www.w3.org/1999/xlink" x="0px" y="0px" width="512px"
	 height="512px" viewBox="0 0 512 512" enable-background="new 0 0 512 512" xml:space="preserve"
><g id="5151e0c8492e5103c096af88a528f396"><g></g><g fill="#1e4072"><path display="inline" d="M452.538,68.045C452.538,30.741,364.545,0.5,256,0.5S59.462,30.741,59.462,68.045v376.717h0.029
		C60.751,481.693,148.239,511.5,256,511.5c107.76,0,195.249-29.807,196.509-66.738h0.029V69.788l-0.072,0.071
		C452.513,69.256,452.538,68.651,452.538,68.045z M123.413,38.871C158.533,26.802,205.62,20.154,256,20.154
		c50.378,0,97.467,6.648,132.587,18.717c32.271,11.09,44.298,23.78,44.298,29.174c0,5.393-12.026,18.083-44.298,29.173
		c-35.12,12.069-82.209,18.717-132.587,18.717c-50.38,0-97.467-6.648-132.587-18.717c-32.271-11.09-44.298-23.78-44.298-29.173
		C79.115,62.651,91.142,49.961,123.413,38.871z M389.85,475.486c-35.512,12.206-83.045,18.932-133.85,18.932
		s-98.338-6.726-133.85-18.932c-36.628-12.584-46.31-26.126-46.31-31.531c0-0.237,0.047-0.521,0.085-0.798h-0.085v-4.229
		l5.895,0.048c0.002-0.042,0.185-4.326,3.745-10.43l-9.64-5.622V95.07c30.335,23.85,99.577,40.519,180.159,40.519
		s149.824-16.669,180.159-40.52v326.622c-0.835-1.363-1.784-2.773-2.871-4.223l-9.436,7.078c6.138,8.177,6.402,14.177,6.41,14.43
		l5.896-0.096v4.276h-0.085c0.039,0.276,0.085,0.561,0.085,0.798C436.159,449.36,426.478,462.902,389.85,475.486z M144.66,380.533
		l2.99,11.408c-6.439,1.689-12.562,3.594-18.195,5.662l-4.064-11.07C131.375,384.334,137.858,382.318,144.66,380.533z
		 M183.938,373.078l1.52,11.693c-6.629,0.859-13.041,1.869-19.061,2.998l-2.173-11.593
		C170.46,375.01,177.093,373.966,183.938,373.078z M106.723,394.798l5.547,10.41c-5.838,3.109-10.98,6.521-15.285,10.142
		l-7.589-9.028C94.33,402.176,100.159,398.299,106.723,394.798z M223.52,369.658l0.568,11.777
		c-6.654,0.322-13.173,0.752-19.374,1.278l-1-11.746C210.06,370.426,216.722,369.984,223.52,369.658z M400.141,392.21
		c6.648,3.175,12.641,6.703,17.819,10.479l-6.948,9.528c-4.595-3.352-9.961-6.503-15.953-9.366L400.141,392.21z M361.881,379.171
		c6.825,1.627,13.344,3.474,19.382,5.489l-3.739,11.186c-5.704-1.908-11.888-3.658-18.375-5.205L361.881,379.171z M263.128,368.944
		l-0.114,11.792c-6.461-0.064-13.171-0.042-19.481,0.073l-0.207-11.792C249.743,368.906,256.572,368.883,263.128,368.944z
		 M322.535,372.399c6.802,0.794,13.439,1.734,19.73,2.802l-1.965,11.624c-6.096-1.029-12.529-1.942-19.132-2.711L322.535,372.399z
		 M282.936,369.417c6.787,0.269,13.451,0.641,19.804,1.109l-0.867,11.761c-6.219-0.46-12.748-0.825-19.397-1.086L282.936,369.417z"></path></g></g></svg>