<?xml version="1.0" encoding="iso-8859-1"?>
<!DOCTYPE svg PUBLIC "-//W3C//DTD SVG 1.1//EN" "http://www.w3.org/Graphics/SVG/1.1/DTD/svg11.dtd">
<svg 
 version="1.1" xmlns="http://www.w3.org/2000/svg" xmlns:xlink="http://www.w3.org/1999/xlink" x="0px" y="0px" width="512px"
	 height="512px" viewBox="0 0 512 512" style="enable-background:new 0 0 512 512;" xml:space="preserve"
><g id="afcae5a789ccd549f9c6e2a2f808a349"><g></g><g fill="#1e4072"><path style="display: inline;" d="M361.942,0.501L0.5,361.942l149.562,149.557L511.5,150.061L361.942,0.501z M25.428,361.942
		L361.942,25.428l124.632,124.633l-24.927,24.926l-74.783-74.778l-24.926,24.926l74.778,74.779l-37.389,37.392l-37.39-37.39
		l-24.926,24.929l37.389,37.387l-43.623,43.621L256,231.073l-24.926,24.928l74.778,74.777l12.463-12.459L262.229,374.4
		l-37.385-37.385l-24.931,24.927l37.389,37.389l-37.389,37.39l-74.779-74.778l-24.928,24.926l74.781,74.778l-24.926,24.927
		L25.428,361.942z"></path></g></g></svg>