<?xml version="1.0" encoding="UTF-8" standalone="no"?>
<svg width="60px" height="60px" viewBox="0 0 60 60" version="1.1" xmlns="http://www.w3.org/2000/svg" xmlns:xlink="http://www.w3.org/1999/xlink" xmlns:sketch="http://www.bohemiancoding.com/sketch/ns">
    <!-- Generator: Sketch 3.2.2 (9983) - http://www.bohemiancoding.com/sketch -->
    <title>Instagram</title>
    <desc>Created with Sketch.</desc>
    <defs></defs>
    <g id="stroked" stroke="none" stroke-width="1" fill="none" fill-rule="evenodd" sketch:type="MSPage">
        <g id="Brands" sketch:type="MSLayerGroup" transform="translate(-597.000000, -236.000000)" stroke="#1e4072" stroke-width="2">
            <g id="Instagram" transform="translate(604.000000, 244.000000)" sketch:type="MSShapeGroup">
                <path d="M39.4004983,5 L34.5995017,5 C33.7162878,5 33,5.71639931 33,6.59975082 L33,11.4002492 C33,12.2848466 33.7162878,13 34.5995017,13 L39.4004983,13 C40.2824665,13 41,12.2848466 41,11.4002492 L41,6.59975082 C41,5.71639931 40.2824665,5 39.4004983,5 L39.4004983,5 Z" id="Shape"></path>
                <path d="M46,35.7692308 C46,40.8461538 41.86,45 36.8,45 L9.2,45 C4.14,45 0,40.8461538 0,35.7692308 L0,9.23076923 C0,4.15384615 4.14,0 9.2,0 L36.8,0 C41.86,0 46,4.15384615 46,9.23076923 L46,35.7692308 L46,35.7692308 Z" id="Shape"></path>
                <circle id="Oval-1943" stroke-linecap="round" stroke-linejoin="round" cx="23" cy="28" r="13"></circle>
                <circle id="Oval-1946" stroke-linecap="round" stroke-linejoin="round" cx="23" cy="28" r="8"></circle>
                <path d="M0,17 L15,17" id="Line" stroke-linecap="square" stroke-linejoin="round"></path>
                <path d="M31,17 L46,17" id="Line" stroke-linecap="square" stroke-linejoin="round"></path>
            </g>
        </g>
    </g>
</svg>