<?xml version="1.0" encoding="iso-8859-1"?>
<!DOCTYPE svg PUBLIC "-//W3C//DTD SVG 1.1//EN" "http://www.w3.org/Graphics/SVG/1.1/DTD/svg11.dtd">
<svg 
 version="1.1" xmlns="http://www.w3.org/2000/svg" xmlns:xlink="http://www.w3.org/1999/xlink" x="0px" y="0px" width="512px"
	 height="512px" viewBox="0 0 512 512" enable-background="new 0 0 512 512" xml:space="preserve"
><g id="b75708d097f2188dff6617b0f00eadc7"><g></g><g fill="#8d8d8d"><path display="inline" d="M335.031,0.5c-30.469,0-51.008,25.743-64.888,60.909l-97.637,101.68h-44.613
		c-24.651,0-44.612,41.604-44.612,92.911s19.961,92.911,44.612,92.911h44.613l97.637,101.68
		c13.88,35.167,34.419,60.909,64.888,60.909c91.064,0,93.688-229.352,93.688-255.5C428.719,229.848,426.096,0.5,335.031,0.5z
		 M335.031,462.631c-16.098-17.558-40.15-92.454-40.15-206.631s24.053-189.077,40.15-206.631
		c16.097,17.555,40.164,92.448,40.164,206.631S351.128,445.073,335.031,462.631z"></path></g></g></svg>